<mxfile host="app.diagrams.net" agent="Mozilla/5.0 (Windows NT 10.0; Win64; x64) AppleWebKit/537.36 (KHTML, like Gecko) Chrome/126.0.0.0 Safari/537.36 Edg/126.0.0.0" version="24.7.5" pages="3">
  <diagram name="Use Case Diagram" id="sROQ5LuungfCPIEWp2a3">
    <mxGraphModel dx="1177" dy="1173" grid="1" gridSize="10" guides="1" tooltips="1" connect="1" arrows="1" fold="1" page="1" pageScale="1" pageWidth="827" pageHeight="1169" math="0" shadow="0">
      <root>
        <mxCell id="0" />
        <mxCell id="1" parent="0" />
        <mxCell id="h8bPkybNbgD0ux9rYqYt-1" value="Use Case Diagram" style="swimlane;whiteSpace=wrap;html=1;" vertex="1" parent="1">
          <mxGeometry x="200" y="40" width="610" height="800" as="geometry" />
        </mxCell>
      </root>
    </mxGraphModel>
  </diagram>
  <diagram id="6HVnv2b26870RN3R9mQF" name="Activity Diagram">
    <mxGraphModel dx="1177" dy="1173" grid="1" gridSize="10" guides="1" tooltips="1" connect="1" arrows="1" fold="1" page="1" pageScale="1" pageWidth="827" pageHeight="1169" math="0" shadow="0">
      <root>
        <mxCell id="0" />
        <mxCell id="1" parent="0" />
        <mxCell id="JV-Yrgi6oh75xNZsdCX4-1" value="Activity Diagram" style="swimlane;whiteSpace=wrap;html=1;startSize=23;" vertex="1" parent="1">
          <mxGeometry x="160" y="40" width="630" height="960" as="geometry" />
        </mxCell>
      </root>
    </mxGraphModel>
  </diagram>
  <diagram id="z6-i54_oXdipl8iE9Fh0" name="Screen Flow">
    <mxGraphModel dx="560" dy="559" grid="1" gridSize="10" guides="1" tooltips="1" connect="1" arrows="1" fold="1" page="1" pageScale="1" pageWidth="827" pageHeight="1169" math="0" shadow="0">
      <root>
        <mxCell id="0" />
        <mxCell id="1" parent="0" />
        <mxCell id="SmaBsIidwX69PvK-VSxZ-6" style="edgeStyle=orthogonalEdgeStyle;rounded=0;orthogonalLoop=1;jettySize=auto;html=1;exitX=0.5;exitY=1;exitDx=0;exitDy=0;entryX=0.5;entryY=0;entryDx=0;entryDy=0;" edge="1" parent="1" source="SmaBsIidwX69PvK-VSxZ-1" target="SmaBsIidwX69PvK-VSxZ-2">
          <mxGeometry relative="1" as="geometry" />
        </mxCell>
        <mxCell id="SmaBsIidwX69PvK-VSxZ-1" value="Splash Screen" style="rounded=1;whiteSpace=wrap;html=1;" vertex="1" parent="1">
          <mxGeometry x="354" y="200" width="120" height="60" as="geometry" />
        </mxCell>
        <mxCell id="SmaBsIidwX69PvK-VSxZ-7" style="edgeStyle=orthogonalEdgeStyle;rounded=0;orthogonalLoop=1;jettySize=auto;html=1;exitX=0.5;exitY=1;exitDx=0;exitDy=0;entryX=0.5;entryY=0;entryDx=0;entryDy=0;endArrow=classic;endFill=1;startArrow=classic;startFill=1;" edge="1" parent="1" source="SmaBsIidwX69PvK-VSxZ-2" target="SmaBsIidwX69PvK-VSxZ-4">
          <mxGeometry relative="1" as="geometry" />
        </mxCell>
        <mxCell id="SmaBsIidwX69PvK-VSxZ-9" style="edgeStyle=orthogonalEdgeStyle;rounded=0;orthogonalLoop=1;jettySize=auto;html=1;exitX=0.5;exitY=1;exitDx=0;exitDy=0;entryX=0.5;entryY=0;entryDx=0;entryDy=0;startArrow=classic;startFill=1;" edge="1" parent="1" source="SmaBsIidwX69PvK-VSxZ-2" target="SmaBsIidwX69PvK-VSxZ-3">
          <mxGeometry relative="1" as="geometry">
            <Array as="points">
              <mxPoint x="414" y="375" />
              <mxPoint x="250" y="375" />
            </Array>
          </mxGeometry>
        </mxCell>
        <mxCell id="SmaBsIidwX69PvK-VSxZ-10" style="edgeStyle=orthogonalEdgeStyle;rounded=0;orthogonalLoop=1;jettySize=auto;html=1;exitX=0.5;exitY=1;exitDx=0;exitDy=0;entryX=0.5;entryY=0;entryDx=0;entryDy=0;startArrow=classic;startFill=1;" edge="1" parent="1" source="SmaBsIidwX69PvK-VSxZ-2" target="SmaBsIidwX69PvK-VSxZ-5">
          <mxGeometry relative="1" as="geometry" />
        </mxCell>
        <mxCell id="SmaBsIidwX69PvK-VSxZ-2" value="Home Screen" style="rounded=1;whiteSpace=wrap;html=1;" vertex="1" parent="1">
          <mxGeometry x="354" y="290" width="120" height="60" as="geometry" />
        </mxCell>
        <mxCell id="SmaBsIidwX69PvK-VSxZ-3" value="Configuration Screen" style="rounded=1;whiteSpace=wrap;html=1;" vertex="1" parent="1">
          <mxGeometry x="190" y="400" width="120" height="60" as="geometry" />
        </mxCell>
        <mxCell id="SmaBsIidwX69PvK-VSxZ-11" style="edgeStyle=orthogonalEdgeStyle;rounded=0;orthogonalLoop=1;jettySize=auto;html=1;exitX=1;exitY=0.5;exitDx=0;exitDy=0;entryX=0;entryY=0.5;entryDx=0;entryDy=0;" edge="1" parent="1" source="SmaBsIidwX69PvK-VSxZ-4" target="SmaBsIidwX69PvK-VSxZ-5">
          <mxGeometry relative="1" as="geometry" />
        </mxCell>
        <mxCell id="SmaBsIidwX69PvK-VSxZ-4" value="Game Screen" style="rounded=1;whiteSpace=wrap;html=1;" vertex="1" parent="1">
          <mxGeometry x="354" y="400" width="120" height="60" as="geometry" />
        </mxCell>
        <mxCell id="SmaBsIidwX69PvK-VSxZ-5" value="High Score Screen" style="rounded=1;whiteSpace=wrap;html=1;" vertex="1" parent="1">
          <mxGeometry x="520" y="400" width="120" height="60" as="geometry" />
        </mxCell>
      </root>
    </mxGraphModel>
  </diagram>
</mxfile>
